<svg width="1089" height="265" viewBox="416.506 376.996 1089.494 265.007" fill="none" xmlns="http://www.w3.org/2000/svg">
<path d="M771.051 578C760.275 578 750.985 576.265 743.181 572.795C735.501 569.201 728.441 563.81 722 556.623L740.952 537.848C745.163 542.681 749.808 546.461 754.886 549.187C760.089 551.79 766.096 553.091 772.909 553.091C779.102 553.091 783.871 551.976 787.216 549.745C790.684 547.514 792.418 544.416 792.418 540.45C792.418 536.857 791.303 533.944 789.074 531.714C786.844 529.483 783.871 527.562 780.155 525.951C776.563 524.34 772.537 522.791 768.078 521.304C763.743 519.817 759.408 518.144 755.072 516.285C750.737 514.302 746.711 511.886 742.995 509.035C739.403 506.061 736.492 502.405 734.263 498.068C732.033 493.607 730.918 488.03 730.918 481.338C730.918 473.283 732.838 466.343 736.678 460.518C740.642 454.694 746.092 450.294 753.028 447.32C759.965 444.222 767.954 442.673 776.997 442.673C786.163 442.673 794.524 444.284 802.079 447.506C809.759 450.728 816.076 455.128 821.031 460.704L802.079 479.479C798.116 475.389 794.09 472.353 790.003 470.37C786.039 468.388 781.518 467.396 776.439 467.396C771.361 467.396 767.335 468.388 764.362 470.37C761.389 472.229 759.903 474.956 759.903 478.55C759.903 481.896 761.018 484.622 763.247 486.729C765.477 488.711 768.388 490.446 771.98 491.934C775.696 493.421 779.722 494.908 784.057 496.395C788.516 497.882 792.913 499.617 797.249 501.6C801.584 503.583 805.548 506.123 809.14 509.221C812.856 512.195 815.829 516.037 818.058 520.746C820.288 525.332 821.403 531.032 821.403 537.848C821.403 550.365 816.943 560.217 808.025 567.404C799.107 574.468 786.782 578 771.051 578Z" fill="#1D1C1C"/>
<path d="M850.203 575.955V448.25H878.63V575.955H850.203ZM829.765 509.779V485.613H899.068V509.779H829.765Z" fill="#1D1C1C"/>
<path d="M947.496 577.814C939.197 577.814 931.765 575.769 925.2 571.68C918.759 567.59 913.619 562.014 909.779 554.95C906.063 547.886 904.205 539.831 904.205 530.784C904.205 521.738 906.063 513.682 909.779 506.619C913.619 499.555 918.759 493.978 925.2 489.889C931.765 485.799 939.197 483.754 947.496 483.754C953.566 483.754 959.016 484.932 963.847 487.286C968.801 489.641 972.827 492.925 975.924 497.138C979.02 501.228 980.754 505.937 981.126 511.266V550.303C980.754 555.631 979.02 560.403 975.924 564.616C972.951 568.706 968.987 571.928 964.032 574.282C959.078 576.637 953.566 577.814 947.496 577.814ZM953.256 552.161C959.326 552.161 964.218 550.179 967.934 546.213C971.65 542.123 973.508 536.981 973.508 530.784C973.508 526.571 972.641 522.853 970.907 519.631C969.297 516.409 966.943 513.93 963.847 512.195C960.874 510.336 957.406 509.407 953.442 509.407C949.478 509.407 945.948 510.336 942.851 512.195C939.879 513.93 937.463 516.409 935.605 519.631C933.871 522.853 933.004 526.571 933.004 530.784C933.004 534.874 933.871 538.53 935.605 541.752C937.339 544.974 939.755 547.514 942.851 549.373C945.948 551.232 949.416 552.161 953.256 552.161ZM972.393 575.955V551.604L976.667 529.669L972.393 507.734V485.613H1000.26V575.955H972.393Z" fill="#1D1C1C"/>
<path d="M1079.92 575.955V524.464C1079.92 519.755 1078.43 515.975 1075.46 513.125C1072.61 510.151 1068.96 508.663 1064.5 508.663C1061.4 508.663 1058.68 509.345 1056.32 510.708C1053.97 511.948 1052.11 513.806 1050.75 516.285C1049.39 518.64 1048.71 521.366 1048.71 524.464L1037.74 519.073C1037.74 512.009 1039.29 505.813 1042.39 500.484C1045.49 495.156 1049.76 491.066 1055.21 488.216C1060.78 485.242 1067.04 483.754 1073.97 483.754C1080.66 483.754 1086.55 485.365 1091.63 488.588C1096.83 491.686 1100.92 495.837 1103.89 501.042C1106.86 506.247 1108.35 511.948 1108.35 518.144V575.955H1079.92ZM1020.28 575.955V485.613H1048.71V575.955H1020.28Z" fill="#1D1C1C"/>
<path d="M1165.07 577.814C1156.52 577.814 1148.9 575.769 1142.21 571.68C1135.65 567.59 1130.45 562.014 1126.61 554.95C1122.89 547.886 1121.03 539.831 1121.03 530.784C1121.03 521.738 1122.89 513.682 1126.61 506.619C1130.45 499.555 1135.65 493.978 1142.21 489.889C1148.9 485.799 1156.52 483.754 1165.07 483.754C1171.26 483.754 1176.83 484.932 1181.79 487.286C1186.87 489.641 1191.02 492.925 1194.24 497.138C1197.58 501.228 1199.44 505.937 1199.81 511.266V549.373C1199.44 554.702 1197.64 559.535 1194.42 563.872C1191.2 568.086 1187.05 571.494 1181.97 574.096C1176.89 576.575 1171.26 577.814 1165.07 577.814ZM1170.08 552.161C1174.17 552.161 1177.7 551.294 1180.67 549.559C1183.65 547.7 1186 545.16 1187.73 541.938C1189.47 538.716 1190.33 534.998 1190.33 530.784C1190.33 526.571 1189.47 522.915 1187.73 519.817C1186.12 516.595 1183.77 514.054 1180.67 512.195C1177.7 510.336 1174.23 509.407 1170.27 509.407C1166.3 509.407 1162.77 510.336 1159.68 512.195C1156.7 514.054 1154.29 516.595 1152.43 519.817C1150.7 523.039 1149.83 526.695 1149.83 530.784C1149.83 534.874 1150.7 538.53 1152.43 541.752C1154.17 544.974 1156.58 547.514 1159.68 549.373C1162.77 551.232 1166.24 552.161 1170.08 552.161ZM1217.09 575.955H1189.22V551.604L1193.49 529.669L1188.66 507.734V441H1217.09V575.955Z" fill="#1D1C1C"/>
<path d="M1280.58 578C1271.29 578 1262.87 575.955 1255.31 571.866C1247.88 567.652 1242 561.952 1237.66 554.764C1233.33 547.576 1231.16 539.521 1231.16 530.598C1231.16 521.676 1233.33 513.682 1237.66 506.619C1242 499.555 1247.88 493.978 1255.31 489.889C1262.75 485.675 1271.17 483.569 1280.58 483.569C1290 483.569 1298.42 485.613 1305.85 489.703C1313.28 493.792 1319.17 499.431 1323.5 506.619C1327.84 513.682 1330 521.676 1330 530.598C1330 539.521 1327.84 547.576 1323.5 554.764C1319.17 561.952 1313.28 567.652 1305.85 571.866C1298.42 575.955 1290 578 1280.58 578ZM1280.58 552.161C1284.67 552.161 1288.26 551.294 1291.36 549.559C1294.46 547.7 1296.81 545.16 1298.42 541.938C1300.15 538.592 1301.02 534.812 1301.02 530.598C1301.02 526.385 1300.15 522.729 1298.42 519.631C1296.68 516.409 1294.27 513.93 1291.17 512.195C1288.2 510.336 1284.67 509.407 1280.58 509.407C1276.62 509.407 1273.09 510.336 1269.99 512.195C1266.89 513.93 1264.48 516.409 1262.75 519.631C1261.01 522.853 1260.14 526.571 1260.14 530.784C1260.14 534.874 1261.01 538.592 1262.75 541.938C1264.48 545.16 1266.89 547.7 1269.99 549.559C1273.09 551.294 1276.62 552.161 1280.58 552.161Z" fill="#1D1C1C"/>
<path d="M1384.29 578C1375.99 578 1368.62 576.327 1362.18 572.981C1355.86 569.511 1350.91 564.802 1347.32 558.853C1343.72 552.781 1341.93 545.841 1341.93 538.034V485.613H1370.35V537.662C1370.35 540.76 1370.85 543.425 1371.84 545.655C1372.96 547.886 1374.57 549.621 1376.67 550.86C1378.78 552.1 1381.32 552.719 1384.29 552.719C1388.5 552.719 1391.85 551.418 1394.32 548.815C1396.8 546.089 1398.04 542.371 1398.04 537.662V485.613H1426.47V537.848C1426.47 545.779 1424.67 552.781 1421.08 558.853C1417.49 564.802 1412.53 569.511 1406.21 572.981C1399.9 576.327 1392.59 578 1384.29 578Z" fill="#1D1C1C"/>
<path d="M1457.13 575.955V448.25H1485.56V575.955H1457.13ZM1436.7 509.779V485.613H1506V509.779H1436.7Z" fill="#1D1C1C"/>
<path d="M647.389 449.816C647.389 445.77 644.518 440.779 641.019 438.73L538.318 379.045C534.819 376.996 529.076 376.996 525.578 379.045L483.181 403.686C479.683 405.735 479.683 409.045 483.181 411.094L640.967 502.775C644.465 504.824 647.337 503.143 647.337 499.097L647.389 449.816Z" fill="#5F3D41"/>
<path d="M416.506 569.184C416.506 573.23 419.378 578.221 422.876 580.27L525.578 639.954C529.076 642.003 534.819 642.003 538.317 639.954L581.393 614.946C584.891 612.897 584.891 609.587 581.393 607.538L422.876 515.437C419.378 513.388 416.506 515.069 416.506 519.115V569.184Z" fill="#E42337"/>
<path d="M641.019 580.218C644.517 578.169 647.389 573.177 647.389 569.132V529.307C647.389 525.262 644.517 520.271 641.019 518.221L469.919 418.818C466.421 416.769 460.678 416.769 457.179 418.818L422.876 438.73C419.378 440.779 416.506 445.77 416.506 449.816V488.852C416.506 492.898 419.378 497.889 422.876 499.938L594.655 599.762C598.153 601.811 603.896 601.811 607.394 599.762L641.019 580.218Z" fill="#AA2E3B"/>
</svg>
